<svg width="10" height="17" viewBox="0 0 10 17" fill="none" xmlns="http://www.w3.org/2000/svg">
<g id="marker" clip-path="url(#clip0_205_942)">
<path id="Vector" d="M9.06089 4.62757C9.06089 2.38457 7.17189 0.55957 4.85089 0.55957C2.52889 0.55957 0.639893 2.38457 0.639893 4.62757C0.639893 6.77857 2.37889 8.53957 4.56989 8.68157V16.2886C4.56989 16.4386 4.69589 16.5596 4.84989 16.5596C5.00489 16.5596 5.13089 16.4386 5.13089 16.2886V8.68157C7.32189 8.54157 9.06089 6.77857 9.06089 4.62757ZM3.44689 4.62757C2.82689 4.62757 2.32389 4.14057 2.32389 3.54257C2.32389 2.94457 2.82789 2.45757 3.44689 2.45757C4.06689 2.45757 4.56989 2.94457 4.56989 3.54257C4.56989 4.14057 4.06589 4.62757 3.44689 4.62757Z" fill="white"/>
</g>
<defs>
<clipPath id="clip0_205_942">
<rect width="9" height="16" fill="white" transform="translate(0.639893 0.55957)"/>
</clipPath>
</defs>
</svg>
