<svg width="14" height="14" viewBox="0 0 14 14" fill="none" xmlns="http://www.w3.org/2000/svg">
<g id="phone" clip-path="url(#clip0_205_948)">
<path id="Vector" d="M13.6439 10.8196C13.6588 10.9203 13.6491 11.0232 13.6154 11.1194C13.5818 11.2155 13.5254 11.3021 13.4509 11.3716L11.6189 13.1896C11.5275 13.2879 11.4178 13.3674 11.2959 13.4236C11.1721 13.485 11.0395 13.5268 10.9029 13.5476C10.816 13.5583 10.7284 13.563 10.6409 13.5616C10.3569 13.5506 10.0739 13.5205 9.79389 13.4716C9.40389 13.4116 8.92689 13.2646 8.36189 13.0316C7.79689 12.7966 7.15689 12.4456 6.44089 11.9776C5.72389 11.5086 4.96189 10.8666 4.15389 10.0486C3.57376 9.48629 3.03971 8.87834 2.55689 8.23057C2.17807 7.72161 1.83715 7.1855 1.53689 6.62657C1.30729 6.19793 1.11427 5.75068 0.959894 5.28957C0.846761 4.9523 0.759181 4.60699 0.697894 4.25657C0.656749 4.03166 0.638323 3.80317 0.642894 3.57457C0.652894 3.40957 0.656894 3.31757 0.656894 3.29957C0.674894 3.17057 0.716894 3.03957 0.780894 2.90657C0.844894 2.77357 0.922894 2.66657 1.01489 2.58357L2.84589 0.75257C2.90224 0.69215 2.97033 0.643869 3.04598 0.610682C3.12164 0.577496 3.20328 0.560104 3.28589 0.55957C3.40589 0.55957 3.51189 0.59357 3.60289 0.66257C3.69489 0.73257 3.77289 0.81657 3.83789 0.91757L5.30989 3.71357C5.39287 3.85977 5.41785 4.03181 5.37989 4.19557C5.34686 4.36227 5.26507 4.51541 5.14489 4.63557L4.46989 5.31157C4.44736 5.3376 4.43096 5.36836 4.42189 5.40157C4.41004 5.43434 4.40329 5.46875 4.40189 5.50357C4.43789 5.69657 4.52089 5.91757 4.64889 6.16557C4.75889 6.38557 4.92889 6.65357 5.15889 6.97057C5.38889 7.28757 5.71389 7.65257 6.13689 8.06557C6.54989 8.48857 6.91689 8.81557 7.23789 9.05057C7.55989 9.28457 7.82789 9.45657 8.04389 9.56657C8.25989 9.67657 8.42489 9.74357 8.53989 9.76657L8.71189 9.80057C8.74269 9.79817 8.77298 9.79144 8.80189 9.78057C8.83511 9.77151 8.86586 9.75511 8.89189 9.73257L9.67589 8.93257C9.83404 8.78851 10.041 8.70988 10.2549 8.71257C10.3841 8.70632 10.5126 8.73499 10.6269 8.79557H10.6399L13.2979 10.3656C13.4909 10.4856 13.6059 10.6366 13.6429 10.8206L13.6439 10.8196Z" fill="white"/>
</g>
<defs>
<clipPath id="clip0_205_948">
<rect width="13" height="13" fill="white" transform="translate(0.639893 0.55957)"/>
</clipPath>
</defs>
</svg>
